<svg width="24" height="25" viewBox="0 0 24 25" fill="none" xmlns="http://www.w3.org/2000/svg">
<path d="M9 1.71436V3.71436H15V1.71436H17V3.71436H21C21.2652 3.71436 21.5196 3.81971 21.7071 4.00725C21.8946 4.19479 22 4.44914 22 4.71436V20.7144C22 20.9796 21.8946 21.2339 21.7071 21.4215C21.5196 21.609 21.2652 21.7144 21 21.7144H3C2.73478 21.7144 2.48043 21.609 2.29289 21.4215C2.10536 21.2339 2 20.9796 2 20.7144V4.71436C2 4.44914 2.10536 4.19479 2.29289 4.00725C2.48043 3.81971 2.73478 3.71436 3 3.71436H7V1.71436H9ZM20 8.71436H4V19.7144H20V8.71436ZM15.036 10.8504L16.45 12.2644L11.5 17.2144L7.964 13.6784L9.38 12.2644L11.501 14.3864L15.037 10.8504H15.036Z" fill="#7D7D83"/>
</svg>
