<svg width="20" height="20" viewBox="0 0 20 20" fill="none" xmlns="http://www.w3.org/2000/svg">
<g opacity="0.2">
<path d="M14.125 9.95833C14.831 9.25302 15.344 8.37831 15.6151 7.41793C15.8862 6.45756 15.9063 5.44367 15.6734 4.47333L17.7525 3.58167C17.8159 3.55449 17.8851 3.54347 17.9538 3.54962C18.0225 3.55576 18.0886 3.57887 18.1462 3.61687C18.2038 3.65487 18.251 3.70657 18.2837 3.76733C18.3163 3.82809 18.3334 3.89601 18.3334 3.965V15.8333L12.5 18.3333L7.50002 15.8333L2.24752 18.0842C2.18412 18.1113 2.11495 18.1224 2.04624 18.1162C1.97753 18.1101 1.91142 18.087 1.85384 18.049C1.79627 18.011 1.74903 17.9593 1.71636 17.8985C1.68369 17.8377 1.66663 17.7698 1.66669 17.7008V5.83333L4.27419 4.71583C4.09072 5.65382 4.14078 6.62253 4.41994 7.5366C4.69911 8.45068 5.19881 9.28207 5.87502 9.9575L10 14.0833L14.125 9.95833ZM12.9467 8.78L10 11.725L7.05335 8.77917C6.47074 8.1964 6.07402 7.45397 5.91333 6.64575C5.75265 5.83753 5.83523 4.9998 6.15063 4.23851C6.46602 3.47721 7.00008 2.82653 7.68526 2.36874C8.37044 1.91095 9.17598 1.66661 10 1.66661C10.8241 1.66661 11.6296 1.91095 12.3148 2.36874C13 2.82653 13.534 3.47721 13.8494 4.23851C14.1648 4.9998 14.2474 5.83753 14.0867 6.64575C13.926 7.45397 13.5293 8.1964 12.9467 8.77917V8.78Z" fill="black"/>
</g>
</svg>
