<svg width="24" height="25" viewBox="0 0 24 25" fill="none" xmlns="http://www.w3.org/2000/svg">
<g clip-path="url(#clip0_8_446)">
<path d="M18.9407 21.928C18.2634 21.6509 17.6014 21.3122 16.9395 20.9889C16.1236 20.5886 15.323 20.3731 14.4917 20.3577C13.8452 20.3577 13.1986 20.4809 12.5366 20.7426C12.4443 20.7734 12.3673 20.8042 12.2595 20.8196C12.0132 20.8349 11.7669 20.8503 11.5206 20.8503C6.56358 20.8503 2.51483 16.817 2.51483 11.8446C2.51483 6.87215 6.56358 2.86958 11.536 2.86958C16.493 2.86958 20.5418 6.90294 20.5418 11.8754C20.5418 14.3231 19.5565 16.5399 17.9709 18.1717L19.8952 19.2801C21.6348 17.3096 22.697 14.7233 22.697 11.8754C22.697 5.71756 17.7092 0.714355 11.536 0.714355C5.36281 0.714355 0.375 5.70217 0.375 11.8754C0.375 18.0485 5.36281 23.0364 11.536 23.0364C12.1518 23.0364 12.7522 22.9902 13.3526 22.8824C14.1377 22.8208 14.8612 22.9594 15.5694 23.2827C16.1543 23.5444 16.7239 23.8215 17.2935 24.1294C18.2942 24.6682 19.3564 24.8529 20.4648 24.6066C21.7118 24.3141 22.7432 23.6829 23.5283 22.5283C21.7271 22.7439 20.5572 22.6053 18.9407 21.928Z" fill="#7D7D83"/>
</g>
<defs>
<clipPath id="clip0_8_446">
<rect width="24" height="24" fill="white" transform="translate(0 0.714355)"/>
</clipPath>
</defs>
</svg>
