<svg width="20" height="20" viewBox="0 0 20 20" fill="none" xmlns="http://www.w3.org/2000/svg">
<path d="M18.3333 12.5H15.8333V2.5H18.3333C18.5544 2.5 18.7663 2.5878 18.9226 2.74408C19.0789 2.90036 19.1667 3.11232 19.1667 3.33333V11.6667C19.1667 11.8877 19.0789 12.0996 18.9226 12.2559C18.7663 12.4122 18.5544 12.5 18.3333 12.5ZM13.9225 13.5775L8.58918 18.9108C8.51829 18.9819 8.42413 19.025 8.32399 19.0322C8.22386 19.0394 8.1245 19.0102 8.04418 18.95L7.33334 18.4167C7.13593 18.2685 6.98681 18.0651 6.9048 17.8323C6.82279 17.5995 6.81155 17.3475 6.87251 17.1083L7.83334 13.3333H2.50001C2.05798 13.3333 1.63406 13.1577 1.3215 12.8452C1.00894 12.5326 0.833344 12.1087 0.833344 11.6667V9.91333C0.83312 9.69553 0.875587 9.4798 0.958344 9.27833L3.53834 3.01667C3.60108 2.86396 3.70776 2.73333 3.84484 2.64134C3.98193 2.54936 4.14325 2.50016 4.30834 2.5H13.3333C13.5544 2.5 13.7663 2.5878 13.9226 2.74408C14.0789 2.90036 14.1667 3.11232 14.1667 3.33333V12.9883C14.1666 13.2093 14.0788 13.4213 13.9225 13.5775Z" fill="#B5B8BB"/>
</svg>
