<svg width="24" height="25" viewBox="0 0 24 25" fill="none" xmlns="http://www.w3.org/2000/svg">
<path d="M21 20.7144C21 20.9796 20.8946 21.234 20.7071 21.4215C20.5196 21.609 20.2652 21.7144 20 21.7144H4C3.73478 21.7144 3.48043 21.609 3.29289 21.4215C3.10536 21.234 3 20.9796 3 20.7144V10.2044C2.99989 10.052 3.03462 9.9016 3.10152 9.76468C3.16841 9.62777 3.26572 9.50795 3.386 9.41438L11.386 3.19238C11.5615 3.05583 11.7776 2.98169 12 2.98169C12.2224 2.98169 12.4385 3.05583 12.614 3.19238L20.614 9.41438C20.7343 9.50795 20.8316 9.62777 20.8985 9.76468C20.9654 9.9016 21.0001 10.052 21 10.2044V20.7144V20.7144Z" fill="#FFC700"/>
</svg>
