<svg width="24" height="25" viewBox="0 0 24 25" fill="none" xmlns="http://www.w3.org/2000/svg">
<path d="M4.22195 4.52236L10.939 11.2394L8.11095 14.0684L4.22095 10.1784C3.47107 9.42825 3.0498 8.41101 3.0498 7.35036C3.0498 6.2897 3.47107 5.27247 4.22095 4.52236H4.22195ZM14.268 12.8604L13.4139 13.7144L20.485 20.7854L19.0709 22.1994L12 15.1294L4.92895 22.1994L3.51495 20.7854L12.854 11.4464C12.266 9.98936 12.874 7.89136 14.474 6.28936C16.427 4.33736 19.118 3.86236 20.485 5.22936C21.852 6.59636 21.3769 9.28736 19.4249 11.2394C17.8229 12.8414 15.725 13.4494 14.268 12.8604V12.8604Z" fill="#7D7D83"/>
</svg>
