<svg width="22" height="20" viewBox="0 0 22 20" fill="none" xmlns="http://www.w3.org/2000/svg">
<path d="M4.33405 2.25936C5.36078 1.33965 6.56673 0.642357 7.87605 0.211365C8.25043 0.680388 8.72571 1.05899 9.26657 1.31903C9.80742 1.57907 10.3999 1.71386 11 1.71336C11.6002 1.71386 12.1927 1.57907 12.7335 1.31903C13.2744 1.05899 13.7497 0.680388 14.124 0.211365C15.4334 0.642357 16.6393 1.33965 17.666 2.25936C17.4476 2.81781 17.3577 3.4183 17.403 4.01625C17.4484 4.61421 17.6278 5.19426 17.928 5.71336C18.2276 6.23346 18.6406 6.67932 19.1363 7.01779C19.632 7.35626 20.1976 7.57863 20.791 7.66837C21.0716 9.01727 21.0716 10.4095 20.791 11.7584C19.6311 11.9364 18.561 12.6184 17.928 13.7134C17.6277 14.2326 17.4481 14.8128 17.4028 15.411C17.3574 16.0091 17.4474 16.6098 17.666 17.1684C16.6392 18.0877 15.4333 18.7847 14.124 19.2154C13.7496 18.7465 13.2742 18.3681 12.7334 18.1082C12.1925 17.8484 11.6001 17.7138 11 17.7144C10.3999 17.7139 9.80742 17.8487 9.26657 18.1087C8.72571 18.3687 8.25043 18.7473 7.87605 19.2164C6.56682 18.7857 5.36087 18.0887 4.33405 17.1694C4.5527 16.6108 4.64269 16.0101 4.59733 15.412C4.55197 14.8138 4.37243 14.2336 4.07205 13.7144C3.77234 13.1945 3.3593 12.7488 2.86363 12.4105C2.36797 12.0722 1.80242 11.85 1.20905 11.7604C0.928364 10.4111 0.928364 9.01859 1.20905 7.66936C1.80251 7.57963 2.36811 7.35726 2.86379 7.01879C3.35946 6.68032 3.77245 6.23446 4.07205 5.71437C4.37228 5.19526 4.55173 4.61521 4.59709 4.01725C4.64245 3.4193 4.55254 2.81881 4.33405 2.26036V2.25936ZM12.5 12.3114C12.844 12.1158 13.1458 11.8542 13.3883 11.5415C13.6307 11.2288 13.8088 10.8713 13.9125 10.4894C14.0161 10.1076 14.0433 9.70907 13.9923 9.31673C13.9413 8.92439 13.8132 8.54601 13.6153 8.20338C13.4175 7.86075 13.1539 7.56063 12.8396 7.32031C12.5253 7.07998 12.1666 6.90419 11.7841 6.80307C11.4016 6.70194 11.0029 6.67747 10.6109 6.73107C10.2189 6.78467 9.84136 6.91527 9.50005 7.11537C8.81663 7.51602 8.31942 8.17072 8.11694 8.93661C7.91445 9.7025 8.02312 10.5174 8.41923 11.2034C8.81533 11.8895 9.46673 12.391 10.2313 12.5986C10.9958 12.8062 11.8114 12.7029 12.5 12.3114Z" fill="#7D7D83"/>
</svg>
