<svg width="183" height="40" viewBox="0 0 183 40" fill="none" xmlns="http://www.w3.org/2000/svg">
<g clip-path="url(#clip0_5_1124)">
<path d="M123.689 29.7627C122.143 31.8153 119.694 33.1495 116.937 33.1495C112.864 33.1495 109.462 30.2502 108.689 26.4272H129.128C129.205 25.8627 129.257 25.3496 129.257 24.7851C129.257 18.0372 123.767 12.5465 116.962 12.5465C110.184 12.5465 104.668 18.0115 104.668 24.7851C104.668 31.533 110.158 37.0237 116.962 37.0237C121.963 37.0237 126.267 34.0475 128.174 29.7883H123.689V29.7627ZM116.937 16.3695C121.035 16.3695 124.463 19.2944 125.21 23.1687H108.663C109.411 19.2944 112.839 16.3695 116.937 16.3695ZM94.307 29.7627C92.7606 31.8153 90.3121 33.1495 87.5542 33.1495C83.482 33.1495 80.0798 30.2502 79.3066 26.4272H99.7453C99.8227 25.8627 99.8742 25.3496 99.8742 24.7851C99.8742 18.0372 94.3843 12.5465 87.58 12.5465C80.8015 12.5465 75.2858 18.0115 75.2858 24.7851C75.2858 31.533 80.7757 37.0237 87.58 37.0237C92.5802 37.0237 96.8844 34.0475 98.7917 29.7883H94.307V29.7627ZM87.5542 16.3695C91.6523 16.3695 95.0802 19.2944 95.8277 23.1687H79.2808C80.0282 19.2944 83.4562 16.3695 87.5542 16.3695ZM70.8527 36.8185H43.3776L64.8216 4.20783H44.5632V0.359205H71.961L50.517 32.9699H70.8527V36.8185ZM38.7383 36.3566C37.4238 38.281 35.7228 39.3329 33.6093 39.8204C31.7536 40.2566 29.9752 39.923 28.2999 39.025C27.3462 38.5119 26.3926 38.05 25.4132 37.6139C24.2276 37.0751 23.0162 36.8441 21.7017 36.9468C20.7223 37.1007 19.6913 37.2033 18.6604 37.2033C8.35079 37.2033 -0.0257568 28.8903 -0.0257568 18.6017C-0.0257568 8.31302 8.35079 0 18.6862 0C28.9957 0 37.3723 8.31302 37.3723 18.6017C37.3723 23.3226 35.5939 27.6588 32.6814 30.9429L29.4597 29.0956C32.1144 26.4015 33.7639 22.6812 33.7639 18.6017C33.7639 10.34 27.0112 3.59205 18.6862 3.59205C10.3612 3.59205 3.60838 10.3143 3.60838 18.6017C3.60838 26.889 10.3612 33.6113 18.6862 33.6113C19.0985 33.6113 19.5109 33.5856 19.9233 33.56C20.078 33.5343 20.2326 33.483 20.3872 33.4317C21.4955 32.9699 22.578 32.7646 23.6605 32.7903C25.0523 32.7903 26.4183 33.1751 27.7586 33.8422C28.8669 34.381 29.9752 34.9455 31.1092 35.4073C33.7897 36.4849 35.7485 36.7158 38.7383 36.3566Z" fill="#FFC700"/>
</g>
<path d="M139.815 30.6421V30.4961C139.815 30.001 139.887 29.5418 140.031 29.1187C140.174 28.6912 140.382 28.321 140.653 28.0078C140.923 27.6904 141.251 27.445 141.637 27.2715C142.022 27.0938 142.453 27.0049 142.931 27.0049C143.414 27.0049 143.848 27.0938 144.233 27.2715C144.622 27.445 144.952 27.6904 145.223 28.0078C145.498 28.321 145.707 28.6912 145.851 29.1187C145.995 29.5418 146.067 30.001 146.067 30.4961V30.6421C146.067 31.1372 145.995 31.5964 145.851 32.0195C145.707 32.4427 145.498 32.813 145.223 33.1304C144.952 33.4435 144.624 33.689 144.239 33.8667C143.858 34.0402 143.427 34.127 142.944 34.127C142.462 34.127 142.028 34.0402 141.643 33.8667C141.258 33.689 140.928 33.4435 140.653 33.1304C140.382 32.813 140.174 32.4427 140.031 32.0195C139.887 31.5964 139.815 31.1372 139.815 30.6421ZM140.989 30.4961V30.6421C140.989 30.9849 141.029 31.3086 141.11 31.6133C141.19 31.9137 141.311 32.1803 141.471 32.4131C141.637 32.6458 141.842 32.8299 142.087 32.9653C142.333 33.0965 142.618 33.1621 142.944 33.1621C143.266 33.1621 143.547 33.0965 143.788 32.9653C144.034 32.8299 144.237 32.6458 144.398 32.4131C144.559 32.1803 144.679 31.9137 144.76 31.6133C144.844 31.3086 144.887 30.9849 144.887 30.6421V30.4961C144.887 30.1576 144.844 29.8381 144.76 29.5376C144.679 29.2329 144.556 28.9642 144.391 28.7314C144.231 28.4945 144.027 28.3083 143.782 28.1729C143.541 28.0374 143.257 27.9697 142.931 27.9697C142.61 27.9697 142.326 28.0374 142.081 28.1729C141.84 28.3083 141.637 28.4945 141.471 28.7314C141.311 28.9642 141.19 29.2329 141.11 29.5376C141.029 29.8381 140.989 30.1576 140.989 30.4961ZM149.279 32.7812L151.044 27.1318H151.818L151.666 28.2554L149.869 34H149.114L149.279 32.7812ZM148.092 27.1318L149.596 32.8447L149.704 34H148.911L146.918 27.1318H148.092ZM153.507 32.8003L154.941 27.1318H156.109L154.116 34H153.329L153.507 32.8003ZM151.99 27.1318L153.716 32.686L153.913 34H153.164L151.317 28.2427L151.164 27.1318H151.99ZM158.49 28.5981V34H157.315V27.1318H158.426L158.49 28.5981ZM158.21 30.3057L157.721 30.2866C157.726 29.8169 157.796 29.3831 157.931 28.9854C158.066 28.5833 158.257 28.2342 158.502 27.938C158.748 27.6418 159.04 27.4132 159.378 27.2524C159.721 27.0874 160.1 27.0049 160.514 27.0049C160.853 27.0049 161.158 27.0514 161.428 27.1445C161.699 27.2334 161.93 27.3773 162.12 27.5762C162.315 27.7751 162.463 28.0332 162.565 28.3506C162.666 28.6637 162.717 29.0467 162.717 29.4995V34H161.536V29.4868C161.536 29.1271 161.484 28.8394 161.378 28.6235C161.272 28.4035 161.117 28.2448 160.914 28.1475C160.711 28.0459 160.462 27.9951 160.165 27.9951C159.873 27.9951 159.607 28.0565 159.366 28.1792C159.129 28.3019 158.923 28.4712 158.75 28.687C158.581 28.9028 158.447 29.1504 158.35 29.4297C158.257 29.7048 158.21 29.9967 158.21 30.3057ZM167.351 34.127C166.873 34.127 166.439 34.0465 166.05 33.8857C165.664 33.7207 165.332 33.4901 165.053 33.1938C164.778 32.8976 164.566 32.5464 164.418 32.1401C164.27 31.7339 164.196 31.2896 164.196 30.8071V30.5405C164.196 29.9819 164.279 29.4847 164.444 29.0488C164.609 28.6087 164.833 28.2363 165.116 27.9316C165.4 27.627 165.722 27.3963 166.081 27.2397C166.441 27.0832 166.813 27.0049 167.199 27.0049C167.689 27.0049 168.113 27.0895 168.468 27.2588C168.828 27.4281 169.122 27.665 169.35 27.9697C169.579 28.2702 169.748 28.6257 169.858 29.0361C169.968 29.4424 170.023 29.8867 170.023 30.3691V30.896H164.894V29.9375H168.849V29.8486C168.832 29.5439 168.769 29.2477 168.658 28.96C168.553 28.6722 168.383 28.4352 168.151 28.249C167.918 28.0628 167.601 27.9697 167.199 27.9697C166.932 27.9697 166.686 28.0269 166.462 28.1411C166.238 28.2511 166.045 28.4162 165.885 28.6362C165.724 28.8563 165.599 29.125 165.51 29.4424C165.421 29.7598 165.377 30.1258 165.377 30.5405V30.8071C165.377 31.133 165.421 31.4398 165.51 31.7275C165.603 32.0111 165.736 32.2607 165.91 32.4766C166.088 32.6924 166.301 32.8617 166.551 32.9844C166.805 33.1071 167.093 33.1685 167.414 33.1685C167.829 33.1685 168.18 33.0838 168.468 32.9146C168.756 32.7453 169.008 32.5189 169.223 32.2354L169.934 32.8003C169.786 33.0246 169.598 33.2383 169.369 33.4414C169.141 33.6445 168.859 33.8096 168.525 33.9365C168.195 34.0635 167.804 34.127 167.351 34.127ZM172.569 28.2109V34H171.394V27.1318H172.537L172.569 28.2109ZM174.714 27.0938L174.708 28.1855C174.61 28.1644 174.517 28.1517 174.428 28.1475C174.344 28.139 174.247 28.1348 174.137 28.1348C173.866 28.1348 173.627 28.1771 173.419 28.2617C173.212 28.3464 173.036 28.4648 172.892 28.6172C172.748 28.7695 172.634 28.9515 172.55 29.1631C172.469 29.3704 172.416 29.599 172.391 29.8486L172.061 30.0391C172.061 29.6243 172.101 29.235 172.181 28.8711C172.266 28.5072 172.395 28.1855 172.569 27.9062C172.742 27.6227 172.962 27.4027 173.229 27.2461C173.5 27.0853 173.821 27.0049 174.194 27.0049C174.278 27.0049 174.376 27.0155 174.486 27.0366C174.596 27.0535 174.672 27.0726 174.714 27.0938ZM179.799 32.1782C179.799 32.009 179.761 31.8524 179.684 31.7085C179.612 31.5604 179.462 31.4271 179.234 31.3086C179.009 31.1859 178.671 31.0801 178.218 30.9912C177.837 30.9108 177.492 30.8156 177.183 30.7056C176.879 30.5955 176.618 30.4622 176.403 30.3057C176.191 30.1491 176.028 29.965 175.914 29.7534C175.8 29.5418 175.742 29.2943 175.742 29.0107C175.742 28.7399 175.802 28.4839 175.92 28.2427C176.043 28.0015 176.214 27.7878 176.434 27.6016C176.659 27.4154 176.927 27.2694 177.241 27.1636C177.554 27.0578 177.903 27.0049 178.288 27.0049C178.838 27.0049 179.308 27.1022 179.697 27.2969C180.086 27.4915 180.385 27.7518 180.592 28.0776C180.799 28.3993 180.903 28.7568 180.903 29.1504H179.729C179.729 28.96 179.672 28.7759 179.557 28.5981C179.447 28.4162 179.284 28.266 179.069 28.1475C178.857 28.029 178.597 27.9697 178.288 27.9697C177.962 27.9697 177.698 28.0205 177.494 28.1221C177.296 28.2194 177.15 28.3442 177.056 28.4966C176.968 28.6489 176.923 28.8097 176.923 28.979C176.923 29.106 176.944 29.2202 176.987 29.3218C177.033 29.4191 177.114 29.5101 177.228 29.5947C177.342 29.6751 177.503 29.7513 177.71 29.8232C177.918 29.8952 178.182 29.9671 178.504 30.0391C179.067 30.166 179.53 30.3184 179.894 30.4961C180.258 30.6738 180.529 30.8918 180.706 31.1499C180.884 31.408 180.973 31.7212 180.973 32.0894C180.973 32.3898 180.909 32.6649 180.783 32.9146C180.66 33.1642 180.48 33.38 180.243 33.562C180.01 33.7397 179.731 33.8794 179.405 33.981C179.083 34.0783 178.722 34.127 178.32 34.127C177.714 34.127 177.202 34.019 176.783 33.8032C176.365 33.5874 176.047 33.3081 175.831 32.9653C175.616 32.6226 175.508 32.2607 175.508 31.8799H176.688C176.705 32.2015 176.798 32.4575 176.968 32.6479C177.137 32.8341 177.344 32.9674 177.59 33.0479C177.835 33.124 178.078 33.1621 178.32 33.1621C178.641 33.1621 178.91 33.1198 179.126 33.0352C179.346 32.9505 179.513 32.8341 179.627 32.686C179.741 32.5379 179.799 32.3687 179.799 32.1782Z" fill="#FFC700"/>
<defs>
<clipPath id="clip0_5_1124">
<rect width="129.231" height="40" fill="white"/>
</clipPath>
</defs>
</svg>
