<svg width="21" height="20" viewBox="0 0 21 20" fill="none" xmlns="http://www.w3.org/2000/svg">
<path d="M10.5 2.5C9.8125 2.5 9.25 3.0625 9.25 3.75C9.25 4.4375 9.8125 5 10.5 5C11.1875 5 11.75 4.4375 11.75 3.75C11.75 3.0625 11.1875 2.5 10.5 2.5ZM10.5 15C9.8125 15 9.25 15.5625 9.25 16.25C9.25 16.9375 9.8125 17.5 10.5 17.5C11.1875 17.5 11.75 16.9375 11.75 16.25C11.75 15.5625 11.1875 15 10.5 15ZM10.5 8.75C9.8125 8.75 9.25 9.3125 9.25 10C9.25 10.6875 9.8125 11.25 10.5 11.25C11.1875 11.25 11.75 10.6875 11.75 10C11.75 9.3125 11.1875 8.75 10.5 8.75Z" fill="#242328"/>
</svg>
