<svg width="24" height="25" viewBox="0 0 24 25" fill="none" xmlns="http://www.w3.org/2000/svg">
<path d="M2 22.7144C2 20.5926 2.84285 18.5578 4.34315 17.0575C5.84344 15.5572 7.87827 14.7144 10 14.7144C12.1217 14.7144 14.1566 15.5572 15.6569 17.0575C17.1571 18.5578 18 20.5926 18 22.7144H2ZM10 13.7144C6.685 13.7144 4 11.0294 4 7.71436C4 4.39936 6.685 1.71436 10 1.71436C13.315 1.71436 16 4.39936 16 7.71436C16 11.0294 13.315 13.7144 10 13.7144ZM17.363 15.9474C18.8926 16.3405 20.2593 17.2062 21.2683 18.4212C22.2774 19.6362 22.8774 21.1385 22.983 22.7144H20C20 20.1044 19 17.7284 17.363 15.9474ZM15.34 13.6714C16.178 12.9218 16.8482 12.0037 17.3066 10.9771C17.765 9.95051 18.0013 8.83864 18 7.71436C18.0021 6.34782 17.6526 5.00373 16.985 3.81136C18.1176 4.03894 19.1365 4.65173 19.8685 5.54555C20.6004 6.43938 21.0002 7.55908 21 8.71436C21.0003 9.42682 20.8482 10.1311 20.5541 10.78C20.26 11.4289 19.8305 12.0075 19.2946 12.4769C18.7586 12.9463 18.1285 13.2957 17.4464 13.5017C16.7644 13.7077 16.0462 13.7656 15.34 13.6714Z" fill="#7D7D83"/>
</svg>
